<svg width="292" height="287" xmlns="http://www.w3.org/2000/svg" xmlns:xlink="http://www.w3.org/1999/xlink" overflow="hidden"><defs><clipPath id="clip0"><path d="M494 153 786 153 786 440 494 440Z" fill-rule="evenodd" clip-rule="evenodd"/></clipPath></defs><g clip-path="url(#clip0)" transform="translate(-494 -153)"><path d="M500 296.5C500 217.799 564.023 154 643 154 721.977 154 786 217.799 786 296.5 786 375.201 721.977 439 643 439 564.023 439 500 375.201 500 296.5Z" fill="#C9CED4" fill-rule="evenodd"/><path d="M534 179 509.238 197.689 496.54 220.738 494 244.41 498.444 255 500.984 230.705 514.952 207.656 534 185.852 534 179Z" fill="#AC8C73" fill-rule="evenodd"/><path d="M514 296.5C514 225.531 571.308 168 642 168 712.692 168 770 225.531 770 296.5 770 367.469 712.692 425 642 425 571.308 425 514 367.469 514 296.5Z" fill="#ABA59C" fill-rule="evenodd"/><path d="M523.219 291.336 524.461 316.193 534.397 344.779 555.511 377.714 586.562 400.707 634.379 415 687.785 408.786 716.973 393.871 748.644 366.529 766.032 331.107 771 279.529 760.443 243.486 739.329 203.093 715.11 183.207 689.648 168.293 654.251 156.486 606.434 154 564.205 166.429 533.155 182.586 513.904 203.714 500.863 232.3 499 255.293 505.831 275.8 513.904 286.986 523.219 291.336Z" fill="#F2F2F2" fill-rule="evenodd"/><path d="M534 329.875 539.333 333 545.333 332.375 548 329.25 547.333 327.375 542.333 323 536.333 324.563 533 325.813 534 329.875Z" fill="#A77E6B" fill-rule="evenodd"/><path d="M568 289.769 564.076 298.513 554.265 303.872 546.977 305 538.568 301.051 531.841 294 531 290.051 536.326 283.564 550.061 283 559.871 283.846 568 289.769Z" fill="#AD8972" fill-rule="evenodd"/><path d="M544.298 297.034C550.884 293.063 557.464 291.904 558.996 294.444" stroke="#000000" stroke-width="2" stroke-miterlimit="8" fill="none" fill-rule="evenodd"/><path d="M632.5 289.544C627.831 289.727 623.156 289.798 618.493 290.093 617.359 290.165 616.209 290.291 615.132 290.643 614.493 290.852 614.066 291.474 613.451 291.742 612.371 292.212 611.21 292.474 610.089 292.841 609.529 293.024 608.987 293.277 608.408 293.39L602.805 294.489C601.872 294.672 600.908 294.743 600.004 295.039 595.739 296.433 597.801 295.91 593.841 296.687 589.024 299.836 595.119 296.06 590.479 298.335 589.877 298.631 589.414 299.166 588.799 299.434 587.719 299.905 585.437 300.533 585.437 300.533 584.877 301.082 584.415 301.75 583.756 302.181 583.265 302.503 582.536 302.369 582.075 302.731 581.549 303.143 581.431 303.912 580.955 304.379 580.479 304.846 579.777 305.039 579.274 305.478 578.089 306.511 576.939 307.767 575.912 308.775 574.885 309.782 573.764 310.698 573.111 311.522 572.737 312.255 572.433 313.025 571.99 313.72 571.495 314.496 570.773 315.123 570.309 315.918 570.016 316.421 570.036 317.06 569.749 317.566 569.095 318.72 568.068 319.672 567.508 320.863 566.948 322.053 566.761 323.793 566.388 324.709 566.014 325.625 565.774 325.922 565.267 326.357 564.253 327.227 562.933 327.822 561.905 328.555 560.878 329.288 559.851 330.203 559.104 330.753 558.357 331.302 558.025 331.556 557.423 331.852 556.528 332.291 554.339 332.716 553.501 332.951 552.933 333.11 552.381 333.317 551.82 333.5L541.175 332.951C539.121 332.813 540.025 332.796 539.494 332.676 538.963 332.556 538.736 332.413 537.989 332.229 537.428 331.863 535.088 331.468 533.576 329.07 532.015 326.594 533.652 319.025 533.331 315.368 533.01 311.711 532.211 309.416 531.65 307.126 531.09 304.837 530.53 303.189 529.97 301.632 529.409 300.075 529.549 299.377 528.289 297.786 527.028 296.195 524.781 293.739 522.406 292.085 520.982 291.032 516.021 289.292 514.037 287.861 512.052 286.43 511.959 284.816 510.5 283.5" stroke="#000000" stroke-width="0.666667" stroke-miterlimit="8" stroke-opacity="0.521569" fill="none" fill-rule="evenodd"/><path d="M559.496 217.937C565.764 212.686 571.519 231.117 578.609 233.382L602.038 231.529 620.703 242.464 623 279.717 614.985 300.104 596.489 305 558.88 289.601 541 264.89C541.103 252.945 553.228 223.188 559.496 217.937Z" fill="#AC8C73" fill-rule="evenodd"/></g></svg>